<svg width="296" height="64" viewBox="0 0 296 64" fill="none" xmlns="http://www.w3.org/2000/svg">
<path d="M257.275 63.7268H0.742393L38.6232 0.330322H295.156L257.275 63.7268Z" fill="#4D4D4D"/>
<path d="M260.391 63.7268H163.161L197.925 0.330322H295.155L260.391 63.7268Z" fill="#01D4B4"/>
<path d="M164.46 63.7268H159.262L195.875 0.330322H201.073L164.46 63.7268Z" fill="#FF9C00"/>
<path d="M54.1668 32.5811H45.2166V42H42.4041V20.6719H55.617V22.9863H45.2166V30.2812H54.1668V32.5811ZM57.5213 33.9287C57.5213 32.376 57.8241 30.9795 58.4295 29.7393C59.0448 28.499 59.8944 27.542 60.9783 26.8682C62.0721 26.1943 63.3172 25.8574 64.7137 25.8574C66.8719 25.8574 68.6151 26.6045 69.9432 28.0986C71.2811 29.5928 71.95 31.5801 71.95 34.0605V34.251C71.95 35.7939 71.6522 37.1807 71.0565 38.4111C70.4705 39.6318 69.6258 40.584 68.5223 41.2676C67.4285 41.9512 66.1688 42.293 64.743 42.293C62.5946 42.293 60.8514 41.5459 59.5135 40.0518C58.1854 38.5576 57.5213 36.5801 57.5213 34.1191V33.9287ZM60.2459 34.251C60.2459 36.0088 60.6512 37.4199 61.4617 38.4844C62.2821 39.5488 63.3758 40.0811 64.743 40.0811C66.1199 40.0811 67.2137 39.5439 68.0242 38.4697C68.8348 37.3857 69.2401 35.8721 69.2401 33.9287C69.2401 32.1904 68.825 30.7842 67.9949 29.71C67.1746 28.626 66.0809 28.084 64.7137 28.084C63.3758 28.084 62.2967 28.6162 61.4764 29.6807C60.6561 30.7451 60.2459 32.2686 60.2459 34.251ZM83.0096 28.582C82.5994 28.5137 82.1551 28.4795 81.6766 28.4795C79.8992 28.4795 78.6932 29.2363 78.0584 30.75V42H75.3485V26.1504H77.9852L78.0291 27.9814C78.9178 26.5654 80.1776 25.8574 81.8084 25.8574C82.3358 25.8574 82.7362 25.9258 83.0096 26.0625V28.582ZM91.7987 42.293C89.6502 42.293 87.9022 41.5898 86.5545 40.1836C85.2069 38.7676 84.533 36.8779 84.533 34.5146V34.0166C84.533 32.4443 84.8309 31.043 85.4266 29.8125C86.0321 28.5723 86.8719 27.6055 87.9461 26.9121C89.0301 26.209 90.202 25.8574 91.4617 25.8574C93.5223 25.8574 95.1239 26.5361 96.2664 27.8936C97.409 29.251 97.9803 31.1943 97.9803 33.7236V34.8516H87.243C87.2821 36.4141 87.7362 37.6787 88.6053 38.6455C89.4842 39.6025 90.5975 40.0811 91.9451 40.0811C92.9022 40.0811 93.7127 39.8857 94.3768 39.4951C95.0408 39.1045 95.6219 38.5869 96.1199 37.9424L97.7752 39.2314C96.4471 41.2725 94.4549 42.293 91.7987 42.293ZM91.4617 28.084C90.368 28.084 89.45 28.4844 88.7078 29.2852C87.9657 30.0762 87.5067 31.1895 87.3309 32.625H95.2703V32.4199C95.1922 31.043 94.8211 29.9785 94.1571 29.2266C93.493 28.4648 92.5946 28.084 91.4617 28.084ZM104.074 42H101.364V26.1504H104.074V42ZM101.144 21.9463C101.144 21.5068 101.276 21.1357 101.54 20.833C101.813 20.5303 102.214 20.3789 102.741 20.3789C103.268 20.3789 103.669 20.5303 103.942 20.833C104.216 21.1357 104.352 21.5068 104.352 21.9463C104.352 22.3857 104.216 22.752 103.942 23.0449C103.669 23.3379 103.268 23.4844 102.741 23.4844C102.214 23.4844 101.813 23.3379 101.54 23.0449C101.276 22.752 101.144 22.3857 101.144 21.9463ZM107.78 33.9434C107.78 31.4727 108.351 29.5098 109.494 28.0547C110.637 26.5898 112.15 25.8574 114.035 25.8574C115.969 25.8574 117.477 26.541 118.561 27.9082L118.693 26.1504H121.169V41.6191C121.169 43.6699 120.558 45.2861 119.338 46.4678C118.127 47.6494 116.496 48.2402 114.445 48.2402C113.303 48.2402 112.184 47.9961 111.091 47.5078C109.997 47.0195 109.162 46.3506 108.586 45.501L109.992 43.875C111.154 45.3105 112.575 46.0283 114.255 46.0283C115.573 46.0283 116.598 45.6572 117.331 44.915C118.073 44.1729 118.444 43.1279 118.444 41.7803V40.418C117.36 41.668 115.881 42.293 114.006 42.293C112.15 42.293 110.646 41.5459 109.494 40.0518C108.351 38.5576 107.78 36.5215 107.78 33.9434ZM110.505 34.251C110.505 36.0381 110.871 37.4443 111.603 38.4697C112.336 39.4854 113.361 39.9932 114.68 39.9932C116.389 39.9932 117.643 39.2168 118.444 37.6641V30.4277C117.614 28.9141 116.369 28.1572 114.709 28.1572C113.39 28.1572 112.36 28.6699 111.618 29.6953C110.876 30.7207 110.505 32.2393 110.505 34.251ZM127.834 26.1504L127.922 28.1426C129.133 26.6191 130.715 25.8574 132.668 25.8574C136.017 25.8574 137.707 27.7471 137.736 31.5264V42H135.026V31.5117C135.016 30.3691 134.753 29.5244 134.235 28.9775C133.727 28.4307 132.931 28.1572 131.847 28.1572C130.969 28.1572 130.197 28.3916 129.533 28.8604C128.869 29.3291 128.351 29.9443 127.98 30.7061V42H125.27V26.1504H127.834ZM148.4 42.293C146.252 42.293 144.504 41.5898 143.156 40.1836C141.808 38.7676 141.135 36.8779 141.135 34.5146V34.0166C141.135 32.4443 141.432 31.043 142.028 29.8125C142.634 28.5723 143.473 27.6055 144.548 26.9121C145.632 26.209 146.804 25.8574 148.063 25.8574C150.124 25.8574 151.725 26.5361 152.868 27.8936C154.011 29.251 154.582 31.1943 154.582 33.7236V34.8516H143.845C143.884 36.4141 144.338 37.6787 145.207 38.6455C146.086 39.6025 147.199 40.0811 148.547 40.0811C149.504 40.0811 150.314 39.8857 150.978 39.4951C151.642 39.1045 152.223 38.5869 152.722 37.9424L154.377 39.2314C153.049 41.2725 151.056 42.293 148.4 42.293ZM148.063 28.084C146.97 28.084 146.052 28.4844 145.309 29.2852C144.567 30.0762 144.108 31.1895 143.932 32.625H151.872V32.4199C151.794 31.043 151.423 29.9785 150.759 29.2266C150.095 28.4648 149.196 28.084 148.063 28.084ZM165.392 28.582C164.982 28.5137 164.538 28.4795 164.059 28.4795C162.282 28.4795 161.076 29.2363 160.441 30.75V42H157.731V26.1504H160.368L160.412 27.9814C161.301 26.5654 162.56 25.8574 164.191 25.8574C164.719 25.8574 165.119 25.9258 165.392 26.0625V28.582Z" fill="#01D4B4"/>
<path d="M205.322 31.9025H196.371V41.3214H193.559V19.9933H206.772V22.3077H196.371V29.6027H205.322V31.9025ZM212.66 41.3214H209.951V25.4718H212.66V41.3214ZM209.731 21.2677C209.731 20.8282 209.863 20.4572 210.126 20.1544C210.4 19.8517 210.8 19.7003 211.327 19.7003C211.855 19.7003 212.255 19.8517 212.529 20.1544C212.802 20.4572 212.939 20.8282 212.939 21.2677C212.939 21.7072 212.802 22.0734 212.529 22.3663C212.255 22.6593 211.855 22.8058 211.327 22.8058C210.8 22.8058 210.4 22.6593 210.126 22.3663C209.863 22.0734 209.731 21.7072 209.731 21.2677ZM219.955 41.3214H217.245V18.8214H219.955V41.3214ZM230.883 41.6144C228.735 41.6144 226.987 40.9113 225.639 39.505C224.291 38.089 223.617 36.1993 223.617 33.8361V33.338C223.617 31.7657 223.915 30.3644 224.511 29.1339C225.117 27.8937 225.956 26.9269 227.031 26.2335C228.115 25.5304 229.286 25.1788 230.546 25.1788C232.607 25.1788 234.208 25.8575 235.351 27.215C236.493 28.5724 237.065 30.5157 237.065 33.045V34.173H226.327C226.367 35.7355 226.821 37.0001 227.69 37.9669C228.569 38.924 229.682 39.4025 231.03 39.4025C231.987 39.4025 232.797 39.2072 233.461 38.8165C234.125 38.4259 234.706 37.9083 235.204 37.2638L236.86 38.5529C235.532 40.5939 233.539 41.6144 230.883 41.6144ZM230.546 27.4054C229.452 27.4054 228.534 27.8058 227.792 28.6066C227.05 29.3976 226.591 30.5109 226.415 31.9464H234.355V31.7413C234.277 30.3644 233.906 29.2999 233.242 28.548C232.577 27.7863 231.679 27.4054 230.546 27.4054ZM249.443 37.1173C249.443 36.3849 249.164 35.8185 248.608 35.4181C248.061 35.0079 247.099 34.6564 245.722 34.3634C244.355 34.0704 243.266 33.7189 242.455 33.3087C241.655 32.8986 241.059 32.4103 240.668 31.8439C240.287 31.2775 240.097 30.6036 240.097 29.8224C240.097 28.5236 240.644 27.4249 241.738 26.5265C242.841 25.6281 244.247 25.1788 245.956 25.1788C247.753 25.1788 249.208 25.6427 250.322 26.5704C251.445 27.4982 252.006 28.6847 252.006 30.13H249.282C249.282 29.3878 248.964 28.7482 248.329 28.2111C247.704 27.674 246.913 27.4054 245.956 27.4054C244.97 27.4054 244.199 27.6202 243.642 28.0499C243.085 28.4796 242.807 29.0411 242.807 29.7345C242.807 30.3888 243.066 30.882 243.583 31.214C244.101 31.546 245.034 31.8634 246.381 32.1661C247.739 32.4689 248.837 32.8302 249.677 33.2501C250.517 33.67 251.137 34.1779 251.537 34.7736C251.948 35.3595 252.153 36.0773 252.153 36.9269C252.153 38.3429 251.586 39.4806 250.453 40.34C249.321 41.1896 247.851 41.6144 246.044 41.6144C244.775 41.6144 243.652 41.3898 242.675 40.9406C241.699 40.4913 240.932 39.8663 240.375 39.0656C239.828 38.255 239.555 37.381 239.555 36.4435H242.265C242.314 37.3517 242.675 38.0743 243.349 38.6115C244.033 39.1388 244.931 39.4025 246.044 39.4025C247.07 39.4025 247.89 39.1974 248.505 38.7872C249.13 38.3673 249.443 37.8107 249.443 37.1173Z" fill="#4D4D4D"/>
</svg>
